<?xml version="1.0" standalone="no"?>
<!DOCTYPE svg PUBLIC "-//W3C//DTD SVG 20010904//EN"
 "http://www.w3.org/TR/2001/REC-SVG-20010904/DTD/svg10.dtd">
<svg version="1.0" xmlns="http://www.w3.org/2000/svg"
 width="500" height="500" viewBox="0 0 2000.000000 2000.000000"
 preserveAspectRatio="xMidYMid meet">
<metadata>
Created by potrace 1.16, written by Peter Selinger 2001-2019
</metadata>
<g transform="translate(0.000000,2000.000000) scale(0.100000,-0.100000)"
fill="#FF6240" stroke="none">
<path d="M9616 19270 c-1275 -57 -2492 -364 -3641 -919 -420 -203 -885 -475
-1245 -729 -41 -29 -83 -58 -94 -65 -66 -42 -430 -325 -582 -451 -241 -201
-344 -296 -635 -586 -373 -372 -585 -615 -893 -1025 -88 -118 -420 -606 -449
-662 -19 -38 -117 -208 -180 -313 -92 -156 -258 -487 -405 -810 -33 -74 -122
-288 -122 -295 0 -3 -11 -31 -25 -61 -14 -30 -25 -58 -25 -63 0 -5 -14 -41
-31 -82 -53 -129 -196 -571 -248 -769 -16 -63 -45 -176 -65 -250 -110 -423
-192 -940 -242 -1520 -21 -247 -30 -895 -15 -1170 14 -273 54 -666 85 -840 14
-74 32 -184 41 -245 19 -127 83 -436 126 -610 136 -550 342 -1144 556 -1605
14 -30 45 -98 68 -150 95 -216 377 -735 510 -940 150 -232 208 -318 258 -390
62 -87 222 -303 244 -330 7 -8 23 -29 35 -47 39 -53 265 -334 331 -409 275
-315 606 -649 902 -909 44 -38 89 -78 100 -88 11 -10 46 -40 78 -65 32 -26
100 -81 150 -122 110 -89 321 -252 395 -304 29 -20 78 -55 110 -77 31 -22 116
-79 187 -126 72 -47 141 -93 155 -102 54 -38 421 -254 575 -339 92 -50 617
-309 672 -330 41 -17 126 -53 313 -132 180 -77 574 -213 840 -290 41 -12 95
-28 120 -35 140 -43 480 -123 695 -164 579 -111 979 -150 1603 -158 498 -7
744 4 1147 48 625 68 1131 177 1810 391 383 120 935 350 1334 555 206 105 454
241 501 273 14 9 45 28 70 42 275 154 824 539 1128 791 832 690 1470 1415
2044 2322 111 177 231 388 365 645 185 356 421 912 536 1265 101 309 128 399
185 620 105 402 130 520 191 900 70 433 98 739 110 1165 28 1000 -102 1986
-384 2930 -135 451 -277 815 -528 1355 -68 147 -283 555 -340 647 -8 13 -59
95 -112 183 -117 191 -191 307 -255 395 -25 36 -80 112 -121 170 -412 584
-1008 1225 -1573 1694 -134 111 -396 316 -526 412 -734 540 -1611 994 -2500
1296 -723 245 -1517 406 -2281 463 -248 19 -796 26 -1053 15z m1099 -1224
c606 -57 1181 -176 1780 -368 241 -77 590 -214 885 -347 210 -95 655 -332 805
-429 537 -346 788 -531 1155 -851 175 -153 550 -523 721 -711 110 -121 321
-379 446 -545 134 -177 423 -602 423 -621 0 -3 13 -24 29 -47 15 -23 64 -105
108 -182 352 -615 633 -1284 793 -1890 163 -612 217 -916 266 -1500 21 -247
24 -940 5 -1175 -41 -518 -106 -914 -237 -1435 -74 -294 -165 -576 -298 -925
-121 -319 -370 -837 -530 -1105 -53 -88 -96 -160 -96 -161 0 -4 -218 -342
-264 -409 -273 -400 -647 -846 -1002 -1195 -179 -176 -464 -436 -556 -508 -20
-15 -78 -61 -129 -103 -287 -231 -539 -406 -869 -603 -382 -228 -776 -429
-1070 -545 -399 -158 -443 -174 -693 -250 -605 -185 -968 -259 -1612 -331
-279 -31 -781 -46 -1080 -31 -754 37 -1310 130 -2000 337 -247 73 -520 167
-650 223 -11 5 -65 27 -120 49 -282 113 -777 366 -1070 547 -50 30 -103 62
-120 71 -140 78 -674 461 -835 600 -517 446 -802 730 -1164 1164 -189 226
-491 641 -621 854 -100 163 -253 424 -277 471 -8 17 -46 91 -85 165 -39 74
-101 200 -138 280 -37 80 -73 159 -82 175 -8 17 -25 57 -38 90 -13 33 -38 94
-55 135 -109 259 -249 683 -329 995 -144 566 -212 1008 -251 1640 -32 504 22
1287 126 1825 37 195 112 513 162 690 69 244 170 556 202 625 5 11 30 72 55
135 137 340 381 852 492 1030 22 36 79 132 128 214 79 134 226 361 317 487 18
26 63 89 100 141 147 204 445 558 692 821 108 115 477 468 555 531 22 17 99
81 172 141 217 180 258 212 489 377 178 127 517 343 693 441 354 198 641 334
1027 487 201 80 434 163 570 203 579 173 1208 291 1770 331 269 20 1066 15
1305 -8z"/>
<path d="M9874 17461 c-17 -10 -42 -36 -55 -57 -24 -39 -24 -40 -24 -341 0
-290 1 -303 21 -330 79 -107 227 -97 283 20 20 41 21 59 21 317 0 258 -1 276
-21 317 -41 86 -149 121 -225 74z"/>
<path d="M6182 16379 c-50 -25 -67 -48 -80 -106 -11 -49 7 -112 53 -183 16
-25 42 -70 58 -100 16 -30 88 -154 160 -274 93 -154 140 -224 162 -237 34 -21
124 -26 157 -8 33 18 67 61 80 102 18 58 -1 110 -91 261 -43 72 -110 185 -149
251 -149 256 -165 278 -219 301 -45 19 -81 17 -131 -7z"/>
<path d="M13595 16386 c-58 -26 -79 -57 -334 -501 -130 -226 -133 -231 -129
-282 5 -59 42 -117 86 -135 36 -14 106 -13 143 2 30 13 87 92 146 200 16 31
48 85 70 120 22 36 72 119 110 185 136 233 126 209 121 275 -4 51 -9 65 -37
94 -31 32 -87 56 -127 56 -11 -1 -32 -7 -49 -14z"/>
<path d="M9685 15664 c-354 -30 -751 -185 -1029 -403 -95 -74 -272 -249 -346
-341 -209 -261 -358 -609 -405 -944 -22 -160 -23 -3659 0 -3808 60 -403 242
-785 515 -1082 70 -76 272 -245 363 -303 90 -58 258 -142 376 -188 335 -130
741 -163 1101 -89 395 82 731 264 1015 549 240 242 415 551 494 875 71 292 66
126 66 2135 0 1711 -1 1816 -18 1925 -63 392 -227 739 -492 1039 -97 109 -348
311 -468 376 -23 12 -58 31 -77 42 -129 72 -396 163 -570 194 -113 20 -407 33
-525 23z m-218 -1476 c56 -31 87 -82 91 -153 3 -52 0 -71 -18 -103 -32 -56
-92 -92 -154 -92 -28 0 -219 -3 -426 -6 -420 -6 -491 -1 -547 42 -123 94 -81
288 70 325 18 4 239 7 492 6 417 -2 463 -4 492 -19z m1819 0 c51 -28 87 -84
92 -144 6 -70 -2 -96 -40 -139 -62 -71 -40 -69 -575 -69 l-481 -1 -38 31 c-55
44 -76 76 -81 127 -11 96 19 156 100 196 41 21 50 21 517 19 424 -3 478 -5
506 -20z m-1879 -737 c167 -32 210 -244 70 -337 l-40 -26 -446 -2 c-245 -2
-468 1 -495 6 -193 33 -208 303 -19 354 55 15 857 19 930 5z m1869 -13 c46
-25 92 -82 100 -124 8 -45 -2 -119 -20 -145 -21 -31 -76 -68 -116 -79 -49 -14
-894 -13 -943 1 -55 15 -114 72 -128 122 -29 109 26 202 141 238 14 4 230 7
480 6 407 -2 458 -4 486 -19z m-1811 -759 c59 -27 95 -88 95 -159 0 -66 -22
-112 -74 -155 l-38 -30 -471 -3 c-524 -3 -523 -3 -586 62 -76 78 -53 232 42
284 42 22 197 28 647 24 313 -3 349 -6 385 -23z m1805 9 c101 -47 138 -158 88
-258 -27 -52 -60 -78 -114 -90 -58 -14 -900 -12 -949 1 -61 17 -121 83 -130
143 -12 78 25 163 89 199 24 14 312 22 726 22 215 -1 261 -3 290 -17z m-1803
-758 c18 -11 46 -38 63 -61 25 -34 30 -52 30 -96 0 -88 -38 -147 -116 -178
-36 -14 -95 -15 -505 -13 -434 3 -466 4 -499 22 -42 23 -55 38 -82 95 -37 80
0 189 79 230 36 19 59 20 518 21 460 0 481 -1 512 -20z m1822 -1 c46 -28 67
-56 82 -107 24 -87 -14 -181 -88 -218 -36 -18 -66 -19 -519 -19 l-480 0 -36
24 c-59 41 -83 85 -83 155 0 51 5 68 30 106 56 83 36 80 580 80 468 0 481 -1
514 -21z"/>
<path d="M3564 13690 c-52 -26 -84 -81 -84 -145 0 -59 30 -103 98 -141 26 -15
85 -51 132 -79 73 -45 255 -152 395 -230 22 -13 60 -35 85 -49 104 -60 221
-17 250 93 14 52 7 85 -25 127 -30 39 -59 58 -463 290 -56 32 -140 80 -185
106 -94 54 -137 60 -203 28z"/>
<path d="M16189 13687 c-24 -13 -69 -38 -99 -56 -30 -17 -174 -100 -319 -184
-162 -93 -273 -163 -285 -180 -33 -44 -29 -133 7 -181 31 -39 84 -67 134 -69
43 -1 94 23 271 130 85 51 155 93 157 93 2 0 59 32 127 71 225 131 254 161
246 251 -12 121 -130 182 -239 125z"/>
<path d="M6989 11627 c-67 -25 -104 -53 -142 -107 -20 -30 -42 -72 -48 -94
-15 -55 -6 -1273 10 -1371 6 -38 18 -117 27 -175 52 -354 184 -730 359 -1025
25 -42 45 -79 45 -82 0 -7 115 -177 176 -260 136 -184 366 -421 545 -561 235
-185 408 -288 714 -427 181 -83 479 -168 704 -201 68 -10 130 -24 137 -32 11
-11 14 -357 14 -2126 -1 -2335 -5 -2156 61 -2252 64 -94 155 -139 279 -139 73
0 92 4 140 28 69 35 131 103 162 176 l23 56 0 2127 c0 1169 3 2129 7 2133 4 4
62 15 130 25 523 77 1063 321 1478 669 91 76 294 273 364 353 261 300 462 657
608 1078 59 173 118 472 138 707 7 81 10 346 8 723 -3 592 -3 595 -25 636 -49
91 -154 154 -258 154 -108 0 -208 -64 -259 -167 l-26 -52 0 -613 c0 -549 -2
-628 -20 -758 -44 -330 -117 -565 -261 -839 -114 -217 -189 -326 -353 -510
-153 -172 -290 -291 -489 -425 -380 -257 -837 -405 -1302 -423 -260 -10 -590
40 -850 129 -250 86 -491 210 -685 352 -297 218 -520 466 -703 781 -55 95
-157 308 -157 327 0 8 -4 18 -9 24 -18 17 -111 344 -130 457 -36 204 -41 310
-42 906 0 530 -2 590 -17 628 -25 62 -82 124 -138 153 -59 29 -160 37 -215 17z"/>
<path d="M2573 10104 c-53 -35 -77 -77 -77 -135 0 -58 33 -112 85 -139 34 -18
66 -19 451 -21 456 -2 448 -3 501 61 61 72 38 189 -45 240 -32 19 -52 20 -453
20 l-421 0 -41 -26z"/>
<path d="M16410 10107 c-95 -63 -98 -203 -7 -271 28 -20 39 -21 461 -24 l432
-3 34 23 c48 32 71 77 73 142 2 61 -16 95 -73 134 -33 22 -34 22 -460 22 -426
0 -427 0 -460 -23z"/>
<path d="M4252 6900 c-40 -9 -655 -357 -713 -403 -41 -33 -62 -87 -57 -145 6
-58 29 -93 81 -123 65 -36 114 -25 264 61 70 40 139 81 153 91 14 9 50 30 80
47 101 56 305 174 331 193 31 22 59 85 59 132 0 43 -51 121 -88 135 -43 17
-75 20 -110 12z"/>
<path d="M15540 6891 c-76 -43 -108 -136 -71 -208 26 -51 28 -53 296 -205 121
-69 261 -150 311 -181 154 -94 205 -106 278 -64 69 39 97 136 61 210 -22 45
-139 123 -379 251 -45 24 -145 80 -223 125 -162 93 -211 106 -273 72z"/>
<path d="M6575 4525 c-34 -17 -84 -70 -105 -111 -15 -27 -91 -162 -202 -354
-124 -214 -158 -286 -158 -332 0 -97 91 -168 193 -151 49 8 93 50 133 129 17
32 47 84 66 114 31 49 69 114 150 260 14 25 51 91 83 148 47 83 58 111 57 146
-1 118 -119 200 -217 151z"/>
<path d="M13195 4525 c-45 -23 -85 -89 -85 -143 0 -46 32 -112 187 -382 33
-58 92 -161 131 -229 39 -68 81 -134 93 -147 31 -33 101 -58 141 -50 113 21
167 127 119 231 -18 40 -195 350 -310 543 -17 29 -31 55 -31 58 0 3 -14 25
-31 50 -51 75 -142 104 -214 69z"/>
</g>
</svg>
